<svg width="298" height="82" viewBox="0 0 298 82" fill="none" xmlns="http://www.w3.org/2000/svg">
<path d="M123.533 67.4381H123.4C123.46 67.4381 123.5 67.5048 123.56 67.5114H123.6L123.533 67.4448V67.4381ZM123.56 67.5114C122.94 67.5181 121.38 67.8448 119.733 67.8448C114.533 67.8448 112.733 65.4448 112.733 62.3114V41.4381H123.333C123.933 41.4381 124.4 40.9048 124.4 40.1714V28.8381C124.4 28.2381 123.867 27.7048 123.333 27.7048H112.733V13.6381C112.733 13.1048 112.4 12.7714 111.8 12.7714H97.4C96.8 12.7714 96.4667 13.1048 96.4667 13.6381V28.1048C96.4667 28.1048 89.2 29.9048 88.7333 29.9714C88.2 30.1048 87.8667 30.5714 87.8667 31.1048V40.1714C87.8667 40.9048 88.4 41.4381 89 41.4381H96.4V63.3048C96.4 79.5714 107.733 81.2381 115.467 81.2381C119 81.2381 123.267 80.1048 123.933 79.7714C124.333 79.6381 124.533 79.1714 124.533 78.7048V68.7048C124.543 68.4211 124.449 68.1437 124.27 67.9233C124.092 67.7029 123.839 67.5543 123.56 67.5048V67.5114ZM281.533 52.8381C281.533 40.7714 276.667 39.1714 271.533 39.7048C267.533 39.9714 264.333 41.9714 264.333 41.9714V65.4381C264.333 65.4381 267.6 67.7048 272.467 67.8381C279.333 68.0381 281.533 65.5714 281.533 52.8381ZM297.733 51.7714C297.733 74.6381 290.333 81.1714 277.4 81.1714C266.467 81.1714 260.6 75.6381 260.6 75.6381C260.6 75.6381 260.333 78.7048 260 79.1048C259.8 79.5048 259.467 79.6381 259.067 79.6381H249.2C248.533 79.6381 247.933 79.1048 247.933 78.5048L248.067 4.4381C248.067 3.8381 248.6 3.30476 249.2 3.30476H263.4C264 3.30476 264.533 3.8381 264.533 4.4381V29.5714C264.533 29.5714 270 26.0381 278 26.0381L277.933 25.9048C285.933 25.9048 297.733 28.9048 297.733 51.7714V51.7714ZM239.6 27.7048H225.6C224.867 27.7048 224.467 28.2381 224.467 28.9714V65.2381C224.467 65.2381 220.8 67.8381 215.8 67.8381C210.8 67.8381 209.333 65.5714 209.333 60.5714V28.9048C209.333 28.3048 208.8 27.7714 208.2 27.7714H193.933C193.333 27.7714 192.8 28.3048 192.8 28.9048V62.9714C192.8 77.6381 201 81.3048 212.267 81.3048C221.533 81.3048 229.067 76.1714 229.067 76.1714C229.067 76.1714 229.4 78.7714 229.6 79.1714C229.733 79.5048 230.2 79.7714 230.667 79.7714H239.6C240.333 79.7714 240.733 79.2381 240.733 78.6381L240.867 28.8381C240.867 28.2381 240.333 27.7048 239.6 27.7048V27.7048ZM81.6 27.6381H67.4C66.8 27.6381 66.2667 28.2381 66.2667 28.9714V77.9048C66.2667 79.2381 67.1333 79.7048 68.2667 79.7048H81.0667C82.4 79.7048 82.7333 79.1048 82.7333 77.9048V28.7714C82.7333 28.1714 82.2 27.6381 81.6 27.6381V27.6381ZM74.6 5.10476C69.4667 5.10476 65.4 9.17143 65.4 14.3048C65.4 19.4381 69.4667 23.5048 74.6 23.5048C79.6 23.5048 83.6667 19.4381 83.6667 14.3048C83.6667 9.17143 79.6 5.10476 74.6 5.10476ZM184.533 3.4381H170.467C169.867 3.4381 169.333 3.97143 169.333 4.57143V31.8381H147.267V4.57143C147.267 3.97143 146.733 3.4381 146.133 3.4381H131.933C131.333 3.4381 130.8 3.97143 130.8 4.57143V78.6381C130.8 79.2381 131.4 79.7714 131.933 79.7714H146.133C146.733 79.7714 147.267 79.2381 147.267 78.6381V46.9714H169.333L169.2 78.6381C169.2 79.2381 169.733 79.7714 170.333 79.7714H184.533C185.133 79.7714 185.667 79.2381 185.667 78.6381V4.57143C185.667 3.97143 185.133 3.4381 184.533 3.4381V3.4381ZM58.7333 36.2381V74.5048C58.7333 74.7714 58.6667 75.2381 58.3333 75.3714C58.3333 75.3714 50 81.3048 36.2667 81.3048C19.6667 81.3048 0 76.1048 0 41.8381C0 7.57143 17.2 0.504762 34 0.571429C48.5333 0.571429 54.4 3.8381 55.3333 4.4381C55.6 4.77143 55.7333 5.0381 55.7333 5.37143L52.9333 17.2381C52.9333 17.8381 52.3333 18.5714 51.6 18.3714C49.2 17.6381 45.6 16.1714 37.1333 16.1714C27.3333 16.1714 16.8 18.9714 16.8 41.0381C16.8 63.1048 26.8 65.7048 34 65.7048C40.1333 65.7048 42.3333 64.9714 42.3333 64.9714V49.6381H32.5333C31.8 49.6381 31.2667 49.1048 31.2667 48.5048V36.2381C31.2667 35.6381 31.8 35.1048 32.5333 35.1048H57.4667C58.2 35.1048 58.7333 35.6381 58.7333 36.2381Z" fill="#24292E"/>
</svg>
